<svg xmlns="http://www.w3.org/2000/svg" viewBox="0 0 64 64" role="img" aria-labelledby="title">
  <title>Hugging Face</title>
  <circle cx="32" cy="32" r="26" fill="#f9d65c"/>
  <circle cx="23" cy="28" r="3.2" fill="#2f2f2f"/>
  <circle cx="41" cy="28" r="3.2" fill="#2f2f2f"/>
  <path d="M22 39c2.8 3.8 6.5 5.7 10 5.7s7.2-1.9 10-5.7" fill="none" stroke="#2f2f2f" stroke-linecap="round" stroke-width="3.4"/>
  <path d="M10.5 37.5c2.6-4.7 5.9-7.1 9.8-7.1 2.4 0 4.4.9 6.1 2.8-1.7 3.7-4 5.6-7 5.6-2.5 0-5.4-.4-8.9-1.3z" fill="#f6c343"/>
  <path d="M53.5 37.5c-3.5.9-6.4 1.3-8.9 1.3-3 0-5.3-1.9-7-5.6 1.7-1.9 3.7-2.8 6.1-2.8 3.9 0 7.2 2.4 9.8 7.1z" fill="#f6c343"/>
  <path d="M14.5 37.4c2.3-3.7 4.9-5.6 7.9-5.6 2 0 3.9.7 5.8 2.1" fill="none" stroke="#2f2f2f" stroke-linecap="round" stroke-width="2.2"/>
  <path d="M49.5 37.4c-2.3-3.7-4.9-5.6-7.9-5.6-2 0-3.9.7-5.8 2.1" fill="none" stroke="#2f2f2f" stroke-linecap="round" stroke-width="2.2"/>
</svg>
